<svg id="Capa_1" data-name="Capa 1" xmlns="http://www.w3.org/2000/svg" viewBox="0 0 800 800"><defs><style>.cls-1{fill:#fff;}.cls-2{fill:none;}</style></defs><path class="cls-1" d="M409.40516,167.26835c-113.28265,0-205.44551,92.16286-205.44551,205.4455a202.85007,202.85007,0,0,0,43.97222,126.74358c5.5124,6.99669,11.44967,13.88583,17.1883,20.54868,17.13861,19.88657,33.32265,38.67226,39.08334,59.80034.12415.45521,1.20843,4.89162,1.0484,19.99413l-.0276,2.18233c-.17382,12.2608-.40557,29.04627,12.007,41.63539,8.50035,8.62173,20.41351,12.81535,36.42924,12.81535H464.7691c17.29314,0,29.725-4.23222,38.00736-12.93672,11.20412-11.77245,10.45368-26.97983,9.95431-37.04448-.08828-1.77954-.18208-3.57562-.20418-5.36341-.17934-15.11906.95184-19.38164.99874-19.561,5.85175-21.1253,24.81127-43.40385,41.54159-63.05588,5.58135-6.558,10.85375-12.75187,15.76468-18.97884a202.864,202.864,0,0,0,43.98877-126.77672C614.8231,259.434,522.674,167.26835,409.40516,167.26835ZM538.3366,473.86541c-4.43363,5.61722-9.46046,11.52689-14.78248,17.78148-19.50583,22.91865-41.61607,48.89419-49.90674,78.82886-1.18359,4.26535-2.72586,12.12561-2.49685,31.10167.02758,2.30375.13518,4.62126.25107,6.91671.08829,1.81263.20692,4.20187.19589,6.09453a42.94236,42.94236,0,0,1-6.82843.458H353.66045a26.40561,26.40561,0,0,1-6.63528-.65387c-.54627-2.69552-.469-8.29619-.41937-11.82765l.03311-2.32854c.19865-19.08922-1.33257-27.00741-2.50236-31.30863-8.22169-30.17194-29.17593-54.48657-47.66094-75.93746-5.7-6.616-11.08823-12.86777-16.03781-19.15267a161.87067,161.87067,0,0,1-35.08838-101.12668c0-90.46335,73.59786-164.0612,164.06122-164.0612,90.44681,0,164.03362,73.59787,164.03362,164.0612A161.88722,161.88722,0,0,1,538.3366,473.86541Z"/><path class="cls-1" d="M460.49,675.13111H358.29556a40.05131,40.05131,0,0,0-40.00484,40.00483v30.67131a40.05131,40.05131,0,0,0,40.00484,40.00484H460.49a40.05132,40.05132,0,0,0,40.00483-40.00484V715.13594A40.05132,40.05132,0,0,0,460.49,675.13111Zm-1.37948,69.29944H359.675V716.5182H459.1105Z"/><path class="cls-1" d="M409.39136,140.48718A20.68908,20.68908,0,0,0,430.08351,119.795V34.87718a20.69215,20.69215,0,1,0-41.38431,0V119.795A20.69086,20.69086,0,0,0,409.39136,140.48718Z"/><path class="cls-1" d="M681.62292,109.63932a20.70114,20.70114,0,0,0-29.256-.68423l-62.8214,59.95208a20.69274,20.69274,0,0,0,28.57174,29.94017l62.82139-59.95484A20.69049,20.69049,0,0,0,681.62292,109.63932Z"/><path class="cls-1" d="M743.30211,316.56364H743.269l-80.86772.12966a20.69217,20.69217,0,0,0,.03309,41.38431h.03309l80.86771-.12966a20.69217,20.69217,0,0,0-.03308-41.38431Z"/><path class="cls-1" d="M219.41255,192.64521a20.69392,20.69392,0,0,0-.68423-29.25595l-62.82138-59.95207a20.69274,20.69274,0,0,0-28.57173,29.94017l62.82139,59.95483a20.691,20.691,0,0,0,29.256-.687Z"/><path class="cls-1" d="M137.59024,316.69332l-80.86495-.12966h-.0331a20.69217,20.69217,0,0,0-.03311,41.38431l80.865.12966h.03311a20.69217,20.69217,0,0,0,.0331-41.38431Z"/><rect class="cls-2" width="800" height="800"/></svg>